<svg xmlns="http://www.w3.org/2000/svg" width="340" height="200" viewBox="0 0 340 200"><style>* {
          font-family: 'Segoe UI', Ubuntu, "Helvetica Neue", Sans-Serif
        }</style><g class="gpsc-root"><rect x="1" y="1" rx="5" ry="5" height="99%" width="99.41176470588235%" stroke="#3f3f3f" stroke-width="1" fill="#3f3f3f" stroke-opacity="1"></rect><text x="30" y="40" class="gpsc-item" style="--gpsc-i: 0; font-size: 22px; fill: #f0dfaf;">Top Languages by Commit</text><g transform="translate(0,40)"><g transform="translate(40,0)"><rect y="18" width="14" height="14" class="gpsc-item" style="--gpsc-i: 0; stroke-width: 1px;" fill="#A97BFF" stroke="#3f3f3f"></rect><rect y="43.2" width="14" height="14" class="gpsc-item" style="--gpsc-i: 1; stroke-width: 1px;" fill="#00ADD8" stroke="#3f3f3f"></rect><rect y="68.4" width="14" height="14" class="gpsc-item" style="--gpsc-i: 2; stroke-width: 1px;" fill="#3178c6" stroke="#3f3f3f"></rect><rect y="93.60000000000002" width="14" height="14" class="gpsc-item" style="--gpsc-i: 3; stroke-width: 1px;" fill="#F05138" stroke="#3f3f3f"></rect><rect y="118.80000000000001" width="14" height="14" class="gpsc-item" style="--gpsc-i: 4; stroke-width: 1px;" fill="#41b883" stroke="#3f3f3f"></rect><text x="16.8" y="30" class="gpsc-item" style="--gpsc-i: 0; fill: #dcdccc; font-size: 14px;">Kotlin</text><text x="16.8" y="55.2" class="gpsc-item" style="--gpsc-i: 1; fill: #dcdccc; font-size: 14px;">Go</text><text x="16.8" y="80.4" class="gpsc-item" style="--gpsc-i: 2; fill: #dcdccc; font-size: 14px;">TypeScript</text><text x="16.8" y="105.60000000000002" class="gpsc-item" style="--gpsc-i: 3; fill: #dcdccc; font-size: 14px;">Swift</text><text x="16.8" y="130.8" class="gpsc-item" style="--gpsc-i: 4; fill: #dcdccc; font-size: 14px;">Vue</text></g><g transform="translate( 230, 80 )"><g class="arc" style="--gpsc-i: 0;"><path d="M3.67394039744206e-15,-60A60,60,0,0,1,10.40254654903356,59.09134475788472L6.0681521536029095,34.46995110876609A35,35,0,0,0,2.1431318985078682e-15,-35Z" style="fill: #A97BFF; stroke-width: 2px;" stroke="#3f3f3f"></path></g><g class="arc" style="--gpsc-i: 1;"><path d="M10.40254654903356,59.09134475788472A60,60,0,0,1,-59.745669361273855,-5.518604223292546L-34.851640460743084,-3.219185796920652A35,35,0,0,0,6.0681521536029095,34.46995110876609Z" style="fill: #00ADD8; stroke-width: 2px;" stroke="#3f3f3f"></path></g><g class="arc" style="--gpsc-i: 2;"><path d="M-59.745669361273855,-5.518604223292546A60,60,0,0,1,-33.9987337023634,-49.43769924496667L-19.832594659711987,-28.838657892897224A35,35,0,0,0,-34.851640460743084,-3.219185796920652Z" style="fill: #3178c6; stroke-width: 2px;" stroke="#3f3f3f"></path></g><g class="arc" style="--gpsc-i: 3;"><path d="M-33.9987337023634,-49.43769924496667A60,60,0,0,1,-15.793480856245289,-57.88407347831883L-9.21286383280975,-33.76570952901932A35,35,0,0,0,-19.832594659711987,-28.838657892897224Z" style="fill: #F05138; stroke-width: 2px;" stroke="#3f3f3f"></path></g><g class="arc" style="--gpsc-i: 4;"><path d="M-15.793480856245289,-57.88407347831883A60,60,0,0,1,-1.1021821192326178e-14,-60L-6.429395695523604e-15,-35A35,35,0,0,0,-9.21286383280975,-33.76570952901932Z" style="fill: #41b883; stroke-width: 2px;" stroke="#3f3f3f"></path></g></g></g></g></svg>